<?xml version="1.0" standalone="no"?>
<!DOCTYPE svg PUBLIC "-//W3C//DTD SVG 20010904//EN"
 "http://www.w3.org/TR/2001/REC-SVG-20010904/DTD/svg10.dtd">
<svg version="1.0" xmlns="http://www.w3.org/2000/svg"
 width="740.000000pt" height="621.000000pt" viewBox="0 0 740.000000 621.000000"
 preserveAspectRatio="xMidYMid meet">

<g transform="translate(0.000000,621.000000) scale(0.100000,-0.100000)"
fill="#000000" stroke="none">
<path d="M1922 4563 l3 -118 1933 0 1933 0 -8 -25 c-12 -39 -8 -142 7 -175
l13 -30 6 30 c6 27 10 30 38 27 18 -2 49 6 72 17 52 27 71 26 132 -5 l51 -25
50 18 c44 15 52 16 75 3 37 -21 43 -56 26 -140 -8 -39 -12 -74 -10 -77 9 -9
28 8 37 33 13 34 38 41 62 16 19 -19 20 -24 8 -52 -16 -38 -52 -64 -78 -56
-15 5 -23 -2 -37 -34 -10 -22 -35 -58 -55 -80 -42 -46 -31 -52 37 -19 87 42
144 146 163 297 18 151 -6 259 -63 281 -12 5 -30 25 -41 44 -23 44 -68 67
-130 67 l-46 0 0 60 0 60 -2090 0 -2091 0 3 -117z"/>
<path d="M1750 4345 c-244 -54 -424 -164 -576 -350 -242 -299 -279 -703 -96
-1059 80 -157 177 -262 334 -364 l58 -37 0 -84 c0 -77 -2 -86 -28 -115 -30
-34 -52 -94 -272 -746 l-127 -375 -189 -5 c-173 -5 -193 -8 -239 -30 -62 -31
-115 -83 -146 -146 -34 -70 -34 -188 0 -258 31 -63 90 -122 150 -150 l46 -21
3035 0 3035 0 47 22 c60 28 124 92 151 152 32 68 31 188 -2 255 -56 114 -144
166 -293 174 -72 3 -98 8 -98 18 0 7 -11 111 -25 231 -13 120 -27 247 -30 283
-17 181 -90 693 -126 888 l-21 112 -252 0 -251 0 -1 -117 c0 -65 -2 -409 -3
-765 l-2 -648 -2239 0 -2239 0 14 48 c8 26 48 144 89 262 51 150 79 216 90
218 9 2 16 9 17 15 0 7 2 30 4 52 2 22 31 119 64 215 62 179 70 220 50 275
-16 43 17 141 47 138 121 -16 201 -18 300 -6 231 26 418 111 577 263 346 328
401 860 128 1252 -132 190 -293 306 -534 384 -71 23 -103 27 -232 30 -106 3
-169 -1 -215 -11z m398 -145 c148 -41 253 -101 360 -204 119 -114 196 -244
238 -401 27 -98 27 -312 0 -410 -63 -236 -222 -434 -432 -539 -120 -60 -229
-86 -360 -86 -154 0 -272 26 -380 84 -27 15 -40 24 -30 21 19 -6 19 -5 1 15
-18 20 -18 20 16 9 19 -7 38 -16 43 -20 6 -5 14 -9 19 -9 5 0 -5 12 -22 26
-17 14 -35 23 -40 20 -5 -4 -13 -1 -17 5 -5 8 -3 9 6 4 9 -5 11 -4 6 3 -5 9
-13 9 -26 2 -25 -14 -30 -13 -30 6 0 11 -6 13 -19 9 -11 -3 -22 -1 -26 5 -3 5
-1 10 6 10 10 0 10 3 1 12 -8 8 -15 8 -26 -2 -14 -11 -11 -16 24 -41 22 -16
40 -32 40 -35 0 -10 -85 55 -141 108 -30 29 -46 46 -34 38 11 -8 8 -3 -7 12
-15 15 -28 31 -28 36 0 4 -7 17 -15 28 -15 19 -15 19 -9 -1 3 -11 -3 -5 -15
13 -12 18 -21 34 -21 37 0 2 -13 23 -28 47 -32 48 -47 82 -32 73 6 -3 10 -1
10 4 0 6 -4 11 -9 11 -12 0 -40 78 -58 160 -18 85 -7 333 12 273 8 -26 31 -29
59 -8 26 19 34 19 39 -2 4 -17 5 -17 12 1 5 11 3 26 -4 38 -7 11 -10 23 -7 26
3 3 6 -1 7 -9 0 -8 5 -3 10 10 5 13 7 33 4 45 -3 12 -2 15 1 8 4 -9 11 -5 20
13 8 15 14 32 14 39 0 6 12 36 27 66 15 30 27 64 27 75 1 11 6 20 13 20 13 0
59 55 46 55 -4 0 0 5 9 11 10 5 23 19 29 31 8 15 8 19 0 14 -13 -8 -14 -4 -5
18 3 9 13 16 21 16 9 0 11 -5 7 -12 -7 -11 36 23 114 91 12 11 22 17 22 14 0
-3 8 1 18 10 22 20 200 107 221 108 12 0 11 3 -4 9 -13 5 30 9 115 9 107 1
151 -3 208 -19z m-482 -29 c-4 -5 0 -12 6 -14 8 -4 7 -6 -4 -7 -25 -3 -28 -4
-83 -30 -27 -13 -53 -23 -56 -22 -4 1 -17 -10 -30 -24 -18 -20 -21 -27 -10
-33 17 -11 -1 -23 -37 -27 -37 -4 -52 -22 -42 -48 6 -17 4 -25 -11 -34 -16
-10 -21 -10 -25 3 -4 8 -10 15 -15 15 -4 0 -6 -6 -3 -14 3 -9 -1 -13 -11 -13
-27 3 -43 -29 -27 -53 11 -18 10 -20 -11 -20 -13 0 -29 6 -36 13 -7 6 -11 8
-10 2 2 -5 -1 -21 -5 -34 -6 -18 -10 -21 -17 -10 -7 11 -9 11 -9 -3 0 -9 -4
-20 -10 -23 -14 -9 8 46 27 67 9 10 19 15 24 13 4 -3 10 -1 14 5 3 5 1 10 -5
10 -11 0 26 54 38 56 23 3 42 19 42 34 0 30 99 103 220 162 78 39 95 44 86 29z
m-346 -355 c0 -8 -11 -11 -30 -8 -23 3 -28 7 -20 17 13 15 50 8 50 -9z m-110
-62 c0 -4 -6 -12 -14 -18 -8 -6 -16 -22 -18 -36 -2 -14 -6 -27 -10 -31 -5 -3
-11 -27 -14 -55 -8 -71 -14 -84 -25 -56 -7 18 -1 46 21 110 16 47 30 88 30 89
0 2 7 3 15 3 8 0 15 -3 15 -6z m4949 -1586 c48 -195 191 -912 191 -953 0 -3
-74 -5 -165 -5 l-165 0 5 53 c3 28 14 169 25 312 39 497 62 737 71 728 4 -5
21 -65 38 -135z"/>
<path d="M1130 3465 c0 -8 9 -15 20 -15 11 0 20 7 20 15 0 8 -9 15 -20 15 -11
0 -20 -7 -20 -15z"/>
<path d="M1200 3455 c0 -8 -6 -15 -12 -15 -9 0 -8 -4 2 -10 10 -7 11 -12 4
-17 -6 -5 -13 -16 -17 -25 -3 -9 -16 -18 -29 -20 -39 -5 -28 -33 15 -36 36 -3
37 -4 38 -45 1 -52 20 -109 34 -99 12 8 -2 135 -13 128 -4 -2 -8 25 -10 60 -1
39 2 64 8 64 5 0 10 7 10 15 0 8 -7 15 -15 15 -8 0 -15 -7 -15 -15z m-13 -107
c-3 -8 -6 -5 -6 6 -1 11 2 17 5 13 3 -3 4 -12 1 -19z m40 -130 c-3 -8 -6 -5
-6 6 -1 11 2 17 5 13 3 -3 4 -12 1 -19z"/>
<path d="M1111 3414 c0 -11 3 -14 6 -6 3 7 2 16 -1 19 -3 4 -6 -2 -5 -13z"/>
<path d="M1232 3172 c-9 -7 -10 -16 -1 -40 11 -32 23 -40 34 -23 10 17 -19 72
-33 63z m15 -34 c-3 -8 -6 -5 -6 6 -1 11 2 17 5 13 3 -3 4 -12 1 -19z"/>
<path d="M1300 3025 c0 -5 5 -17 10 -25 5 -8 10 -10 10 -5 0 6 -5 17 -10 25
-5 8 -10 11 -10 5z"/>
<path d="M1389 2825 c0 0 -2 -10 -3 -22 -1 -12 1 -20 6 -17 4 3 8 -2 8 -10 0
-9 6 -16 14 -16 19 0 33 23 18 28 -19 6 -14 21 6 17 9 -1 16 -9 14 -16 -2 -8
0 -11 4 -7 4 4 14 2 23 -4 9 -7 5 0 -8 14 -13 15 -28 25 -32 22 -5 -3 -9 -1
-9 5 0 7 -29 12 -41 6z"/>
<path d="M1571 2656 c2 -2 15 -9 29 -15 24 -11 24 -11 6 3 -16 13 -49 24 -35
12z"/>
<path d="M1675 2633 c17 -9 32 -19 35 -23 6 -9 60 -22 60 -15 0 6 -108 55
-119 55 -3 -1 8 -8 24 -17z"/>
<path d="M1788 2583 c7 -3 16 -2 19 1 4 3 -2 6 -13 5 -11 0 -14 -3 -6 -6z"/>
<path d="M4150 4260 l0 -70 255 0 255 0 0 70 0 70 -255 0 -255 0 0 -70z"/>
<path d="M5848 4213 c-10 -2 -18 -13 -18 -24 0 -22 8 -24 33 -5 10 8 27 12 37
9 24 -6 27 12 4 21 -17 6 -29 6 -56 -1z"/>
<path d="M6083 4213 c-24 -9 -13 -23 16 -23 17 0 33 -5 37 -11 4 -8 10 -7 18
1 21 22 -35 48 -71 33z"/>
<path d="M5880 4124 c0 -14 4 -23 10 -19 6 3 10 15 10 26 0 10 -4 19 -10 19
-5 0 -10 -12 -10 -26z"/>
<path d="M6090 4124 c0 -14 4 -23 10 -19 6 3 10 15 10 26 0 10 -4 19 -10 19
-5 0 -10 -12 -10 -26z"/>
<path d="M3704 3853 c-431 -3 -442 -4 -447 -23 -5 -20 1 -20 444 -20 l449 0 0
25 c0 14 -1 24 -2 23 -2 -2 -202 -4 -444 -5z"/>
<path d="M5480 3507 c0 -21 102 -98 127 -97 4 1 -5 8 -22 18 -28 15 -29 17 -8
20 14 2 20 8 16 18 -6 17 -11 18 67 -6 82 -25 101 -26 93 -2 -3 9 -15 27 -26
40 -19 20 -29 22 -134 22 -87 0 -113 -3 -113 -13z"/>
<path d="M5841 3354 c0 -11 3 -14 6 -6 3 7 2 16 -1 19 -3 4 -6 -2 -5 -13z"/>
<path d="M3257 3090 c5 -19 16 -20 449 -22 l444 -3 0 23 0 22 -449 0 c-443 0
-449 0 -444 -20z"/>
</g>
</svg>
