<?xml version="1.0" standalone="no"?>
<!DOCTYPE svg PUBLIC "-//W3C//DTD SVG 20010904//EN"
 "http://www.w3.org/TR/2001/REC-SVG-20010904/DTD/svg10.dtd">
<svg version="1.0" xmlns="http://www.w3.org/2000/svg"
 width="326.000000pt" height="326.000000pt" viewBox="0 0 326.000000 326.000000"
 preserveAspectRatio="xMidYMid meet">

<g transform="translate(0.000000,326.000000) scale(0.100000,-0.100000)"
fill="#000000" stroke="none">
<path d="M391 2884 c-58 -29 -104 -84 -122 -143 -7 -24 -9 -314 -7 -872 l3
-836 30 -49 c19 -30 49 -60 79 -79 l49 -30 359 -3 c271 -2 358 -6 358 -15 -1
-7 -13 -73 -28 -147 l-28 -135 -81 -5 c-125 -8 -173 -54 -174 -171 -2 -107
-57 -99 662 -99 606 0 619 0 639 20 27 27 27 109 0 167 -28 63 -68 83 -162 83
-64 0 -77 3 -82 18 -5 17 -56 270 -56 277 0 2 159 5 353 7 341 3 353 4 393 25
55 29 109 93 123 146 9 31 11 267 9 873 l-3 831 -30 49 c-19 30 -49 60 -79 79
l-49 30 -1051 3 -1051 2 -54 -26z m2149 -95 c74 -42 70 3 70 -763 l0 -686
-748 0 -748 0 -49 -50 -49 -50 794 -2 795 -3 3 -80 c2 -71 0 -85 -20 -114 -13
-19 -39 -42 -58 -52 -33 -18 -81 -19 -1048 -19 -1111 0 -1042 -4 -1096 60 -24
29 -26 39 -26 121 l0 89 33 0 c26 0 43 10 82 50 l49 50 -82 0 -82 0 0 689 0
688 22 28 c12 15 35 36 52 46 30 18 70 19 1050 19 1015 0 1018 0 1056 -21z
m-788 -2059 c15 -74 28 -141 28 -147 0 -10 -66 -13 -295 -13 -162 0 -295 2
-295 6 0 3 6 35 14 72 8 37 22 102 31 145 l16 77 237 -2 236 -3 28 -135z m286
-272 c7 -7 12 -22 12 -35 l0 -23 -565 0 c-603 0 -584 -2 -549 48 l15 22 538 0
c404 0 540 -3 549 -12z"/>
<path d="M1373 2635 c-115 -25 -191 -68 -285 -161 -189 -187 -217 -492 -68
-723 l39 -60 -52 -50 c-46 -45 -57 -51 -96 -51 -44 0 -46 -1 -229 -182 -101
-101 -190 -196 -199 -212 -10 -20 -13 -43 -9 -73 11 -82 58 -123 143 -123 l47
0 193 192 c166 167 193 198 199 232 4 24 2 53 -6 74 -12 34 -11 35 34 80 l45
46 29 -21 c39 -29 117 -67 182 -89 40 -13 84 -18 165 -18 115 0 171 12 266 60
111 55 214 170 263 291 116 284 -9 617 -280 745 -116 54 -255 70 -381 43z
m218 -95 c30 -5 87 -26 126 -46 292 -142 349 -547 110 -771 -154 -144 -350
-171 -547 -76 -75 36 -169 132 -208 213 -114 234 -18 522 211 635 106 52 197
66 308 45z m-639 -1075 c11 -25 4 -33 -153 -194 -98 -100 -172 -169 -184 -170
-24 -1 -45 16 -45 38 0 22 331 351 353 351 9 0 23 -11 29 -25z"/>
<path d="M1556 2404 c-30 -30 -9 -84 33 -84 9 0 38 -13 63 -29 50 -32 88 -88
109 -160 15 -51 44 -70 79 -51 20 11 22 17 17 60 -12 102 -93 206 -197 254
-64 30 -83 32 -104 10z"/>
</g>
</svg>
