<?xml version="1.0" standalone="no"?>
<!DOCTYPE svg PUBLIC "-//W3C//DTD SVG 20010904//EN"
 "http://www.w3.org/TR/2001/REC-SVG-20010904/DTD/svg10.dtd">
<svg version="1.0" xmlns="http://www.w3.org/2000/svg"
 width="330.000000pt" height="293.000000pt" viewBox="0 0 330.000000 293.000000"
 preserveAspectRatio="xMidYMid meet">

<g transform="translate(0.000000,293.000000) scale(0.100000,-0.100000)"
fill="#000000" stroke="none">
<path d="M551 2678 c-49 -24 -96 -83 -111 -139 -7 -25 -9 -348 -8 -931 l3
-893 22 -40 c48 -89 113 -125 228 -125 70 0 75 -1 75 -21 0 -29 147 -179 174
-179 12 1 39 14 61 29 38 27 41 28 71 14 28 -14 32 -22 37 -67 9 -76 26 -86
151 -86 55 0 106 4 112 8 20 13 34 50 34 89 0 35 4 41 34 55 32 16 34 16 77
-13 24 -16 53 -29 64 -29 12 0 51 30 94 74 63 63 73 78 69 103 l-4 28 143 -3
c134 -3 143 -4 143 -23 0 -10 9 -28 20 -39 18 -18 33 -20 134 -20 124 0 146 8
146 55 l0 24 223 3 c202 3 226 5 262 24 48 25 100 90 115 142 6 24 10 340 10
917 -1 709 -3 887 -14 918 -20 54 -61 104 -106 127 -38 20 -61 20 -1127 20
l-1088 0 -44 -22z m2228 -94 c39 -28 51 -73 51 -199 l0 -115 -1150 0 -1150 0
0 116 c0 129 13 174 59 199 22 12 190 14 1096 15 974 0 1073 -1 1094 -16z m51
-848 l0 -434 -42 5 c-79 8 -87 12 -108 53 -11 21 -20 44 -20 50 0 6 18 33 40
61 22 28 40 57 40 65 0 16 -124 160 -150 174 -31 17 -49 12 -108 -30 l-58 -41
-46 21 -46 20 -7 67 c-4 38 -12 74 -17 81 -7 8 -47 12 -134 12 -116 0 -124 -1
-138 -22 -10 -14 -16 -44 -16 -78 l0 -56 -49 -21 -49 -21 -59 39 c-32 21 -67
39 -79 39 -29 0 -174 -150 -174 -180 0 -13 18 -46 40 -75 l40 -52 -22 -54
c-13 -30 -23 -56 -25 -58 -1 -1 -12 4 -25 13 -33 24 -65 20 -113 -15 -42 -30
-43 -30 -74 -15 -27 15 -31 21 -31 60 0 28 -7 52 -19 67 -18 23 -26 24 -131
24 -105 0 -113 -1 -131 -24 -13 -15 -19 -39 -19 -70 0 -43 -2 -48 -31 -58 -29
-11 -35 -9 -77 22 -25 19 -51 35 -58 35 -29 0 -174 -154 -174 -184 0 -7 15
-33 34 -56 34 -43 34 -44 18 -77 -15 -31 -19 -33 -63 -33 -79 0 -94 -32 -88
-185 5 -102 15 -115 91 -115 37 0 50 -4 58 -20 10 -19 8 -20 -87 -20 -81 0
-104 4 -131 20 -64 39 -62 17 -62 795 l0 705 1150 0 1150 0 0 -434z m-597 -52
c6 -58 20 -84 43 -84 8 0 44 -13 81 -30 36 -16 72 -30 79 -30 8 0 37 16 65 37
l51 36 40 -41 41 -41 -32 -37 c-56 -63 -57 -71 -17 -154 20 -41 36 -80 36 -86
0 -21 27 -35 79 -41 l51 -6 0 -53 0 -54 -43 0 c-44 0 -87 -22 -87 -43 0 -7
-16 -45 -35 -86 -19 -40 -35 -76 -35 -81 0 -4 17 -30 39 -57 l38 -49 -39 -43
-40 -43 -27 25 c-14 13 -39 32 -54 42 -27 17 -29 17 -100 -14 -129 -57 -121
-50 -131 -119 l-9 -62 -52 0 -52 0 -7 60 c-7 59 -24 90 -52 90 -8 0 -44 14
-81 30 -78 36 -77 36 -114 9 l-29 -20 0 103 c0 127 -7 140 -80 148 -47 5 -53
8 -65 38 -13 31 -13 34 15 66 34 38 38 71 14 98 -12 12 -14 21 -7 30 6 7 18
38 28 68 10 30 26 72 36 92 l19 36 -35 49 c-19 26 -38 54 -41 61 -6 13 51 82
68 82 4 0 30 -16 57 -35 56 -40 68 -42 119 -16 20 10 56 25 80 32 50 15 58 27
68 97 l7 52 52 0 52 0 6 -56z m-933 -375 c0 -66 17 -85 102 -119 l80 -32 43
30 43 30 20 -21 c32 -37 34 -46 14 -75 -32 -46 -33 -61 -8 -110 13 -26 26 -60
30 -75 7 -30 38 -47 87 -47 28 0 29 -1 29 -50 l0 -50 -40 0 c-42 0 -80 -26
-80 -55 0 -9 -11 -38 -25 -66 -28 -54 -25 -69 18 -117 l21 -22 -34 -35 c-29
-30 -36 -33 -49 -21 -9 7 -29 20 -45 28 -27 14 -33 14 -90 -12 -34 -15 -69
-30 -78 -33 -16 -6 -38 -63 -38 -99 0 -15 -9 -18 -50 -18 l-50 0 0 34 c0 44
-16 86 -32 86 -7 0 -42 14 -77 30 l-64 31 -38 -26 c-21 -14 -42 -25 -47 -25
-5 0 -21 13 -36 29 l-27 28 26 39 c29 43 29 51 -8 139 -27 65 -52 85 -104 85
-33 0 -33 0 -33 50 l0 50 38 0 c51 0 69 15 99 85 37 88 37 96 9 138 l-26 38
26 35 c30 38 36 41 55 18 7 -8 25 -22 40 -29 24 -13 33 -12 85 10 33 13 67 26
77 29 21 7 37 45 37 89 0 32 1 32 50 32 48 1 50 0 50 -26z m1530 -419 c0 -86
-4 -131 -16 -160 -21 -52 -66 -80 -129 -80 l-48 0 52 54 c28 30 51 60 51 66 0
17 -19 50 -53 92 l-30 37 21 48 c22 51 37 58 120 62 l32 1 0 -120z m-1083
-206 c-3 -3 -12 -4 -19 -1 -8 3 -5 6 6 6 11 1 17 -2 13 -5z m203 -24 c11 -7 5
-10 -23 -10 -23 0 -36 4 -32 10 8 13 35 13 55 0z m495 0 c4 -6 -9 -10 -32 -9
-30 0 -34 2 -18 9 27 12 43 12 50 0z"/>
<path d="M690 2480 c-28 -28 -25 -64 6 -89 15 -12 32 -21 39 -21 24 0 65 41
65 66 0 31 -33 64 -65 64 -14 0 -34 -9 -45 -20z"/>
<path d="M905 2480 c-24 -27 -22 -70 5 -92 44 -35 100 -10 100 46 0 59 -66 89
-105 46z"/>
<path d="M1120 2480 c-28 -28 -25 -64 6 -89 15 -12 32 -21 39 -21 24 0 65 41
65 66 0 31 -33 64 -65 64 -14 0 -34 -9 -45 -20z"/>
<path d="M2100 1421 c-111 -34 -200 -152 -200 -266 0 -46 25 -121 55 -167 33
-49 102 -94 171 -109 46 -10 63 -9 121 6 57 15 76 27 119 69 137 138 104 360
-67 445 -64 32 -139 40 -199 22z m162 -107 c60 -31 105 -127 89 -194 -11 -50
-25 -73 -65 -108 -83 -73 -215 -42 -265 61 -51 105 0 224 109 255 40 12 92 6
132 -14z"/>
<path d="M1171 1059 c-46 -14 -127 -97 -140 -145 -30 -106 7 -214 91 -270 156
-104 362 5 362 191 0 161 -152 270 -313 224z m129 -95 c132 -53 108 -245 -33
-261 -85 -10 -147 47 -147 135 0 58 31 105 85 128 39 17 47 17 95 -2z"/>
</g>
</svg>
