<?xml version="1.0" standalone="no"?>
<!DOCTYPE svg PUBLIC "-//W3C//DTD SVG 20010904//EN"
 "http://www.w3.org/TR/2001/REC-SVG-20010904/DTD/svg10.dtd">
<svg version="1.0" xmlns="http://www.w3.org/2000/svg"
 width="310.000000pt" height="332.000000pt" viewBox="0 0 310.000000 332.000000"
 preserveAspectRatio="xMidYMid meet">

<g transform="translate(0.000000,332.000000) scale(0.100000,-0.100000)"
fill="#000000" stroke="none">
<path d="M480 3017 c-64 -16 -61 22 -60 -818 l0 -764 25 -22 26 -23 485 0 484
0 0 -60 0 -59 -353 -3 c-391 -3 -386 -2 -427 -71 -16 -26 -20 -51 -20 -129 l0
-98 -90 0 c-136 0 -130 13 -130 -276 0 -134 4 -243 10 -254 17 -33 66 -40 267
-40 228 0 255 7 273 67 7 25 10 110 8 245 -3 203 -3 207 -27 232 -23 24 -30
26 -118 26 l-93 0 0 83 c0 126 -27 118 366 115 l329 -3 0 -95 0 -95 -80 -3
c-160 -5 -157 2 -153 -297 4 -297 -24 -270 279 -270 l231 0 24 28 c24 28 24
30 24 256 0 289 5 279 -138 283 l-97 3 0 95 0 95 328 3 c215 1 335 -1 347 -8
18 -9 20 -22 20 -100 l0 -90 -90 0 c-83 0 -93 -2 -115 -25 l-25 -24 0 -230 c0
-229 0 -230 24 -258 l24 -28 199 -3 c222 -4 255 0 283 30 19 21 20 36 20 258
0 288 5 277 -130 282 l-85 3 -5 105 c-6 116 -15 141 -63 167 -28 16 -70 18
-384 21 l-353 3 0 59 0 60 485 0 486 0 24 25 25 24 0 760 0 761 -27 30 -28 31
-987 2 c-544 1 -1001 -1 -1018 -6z m1960 -267 l0 -170 -962 2 -963 3 -3 168
-2 167 965 0 965 0 0 -170z m0 -760 l0 -500 -460 0 -461 0 3 78 3 77 374 5
c328 4 375 7 384 21 16 26 0 66 -30 74 -37 9 -1533 4 -1559 -6 -27 -10 -36
-33 -24 -64 l9 -25 378 -2 378 -3 0 -75 0 -75 -462 -3 -463 -2 0 495 0 495
963 3 c529 1 963 3 965 5 1 1 2 -223 2 -498z m-1570 -1300 l0 -180 -175 0
-175 0 0 180 0 180 175 0 175 0 0 -180z m790 0 l0 -180 -180 0 -180 0 0 180 0
180 180 0 180 0 0 -180z m780 0 l0 -180 -175 0 -175 0 0 180 0 180 175 0 175
0 0 -180z"/>
<path d="M667 2782 c-22 -24 -21 -55 1 -75 16 -15 45 -17 204 -17 166 0 187 2
201 18 22 24 21 55 -1 75 -16 15 -45 17 -204 17 -166 0 -187 -2 -201 -18z"/>
<path d="M1227 2782 c-22 -24 -21 -55 1 -75 24 -22 95 -22 116 -1 23 22 20 71
-3 84 -32 17 -96 12 -114 -8z"/>
<path d="M685 2325 c-25 -24 -25 -26 -25 -205 0 -176 5 -213 34 -232 6 -4 104
-8 219 -8 194 0 208 1 227 20 19 19 20 33 20 210 0 258 19 240 -250 240 -200
0 -201 0 -225 -25z m375 -210 l0 -135 -150 0 -150 0 0 135 0 135 150 0 150 0
0 -135z"/>
<path d="M1280 2328 c-19 -20 -20 -34 -20 -210 0 -187 0 -189 25 -213 l24 -25
469 0 c448 0 471 1 493 19 24 19 24 21 24 216 0 195 0 197 -24 216 -22 18 -45
19 -497 19 l-473 0 -21 -22z m920 -213 l0 -135 -420 0 -420 0 0 135 0 135 420
0 420 0 0 -135z"/>
</g>
</svg>
