<?xml version="1.0" standalone="no"?>
<!DOCTYPE svg PUBLIC "-//W3C//DTD SVG 20010904//EN"
 "http://www.w3.org/TR/2001/REC-SVG-20010904/DTD/svg10.dtd">
<svg version="1.0" xmlns="http://www.w3.org/2000/svg"
 width="360.000000pt" height="360.000000pt" viewBox="0 0 360.000000 360.000000"
 preserveAspectRatio="xMidYMid meet">

<g transform="translate(0.000000,360.000000) scale(0.100000,-0.100000)"
fill="#000000" stroke="none">
<path d="M1919 2885 c-3 -2 -146 -5 -317 -5 l-313 -2 -47 -59 c-26 -33 -102
-128 -169 -210 -70 -86 -124 -162 -128 -180 -4 -17 -4 -50 -1 -73 6 -41 6 -43
-33 -64 -47 -27 -57 -59 -46 -150 15 -132 46 -192 97 -192 42 0 158 -22 158
-30 0 -4 -52 -51 -115 -106 -120 -104 -136 -128 -127 -194 2 -19 16 -57 30
-85 22 -41 32 -50 57 -52 17 -1 84 -13 150 -26 l120 -24 14 -102 c14 -98 14
-104 -7 -169 -30 -92 -29 -142 3 -180 l24 -29 -25 -94 c-14 -52 -31 -113 -39
-137 -8 -23 -15 -54 -15 -68 0 -29 45 -78 64 -71 8 3 216 -1 463 -8 246 -8
490 -15 541 -15 89 0 92 1 92 23 0 12 -3 33 -7 47 -7 24 -8 23 -13 -10 l-5
-35 -210 3 c-318 3 -856 30 -872 43 -7 7 -13 32 -13 60 0 41 3 49 19 49 10 0
21 -7 25 -15 3 -8 12 -15 20 -15 8 0 23 -12 33 -26 l19 -26 172 37 c139 29
186 36 240 31 37 -3 197 -8 355 -12 l288 -6 -6 38 c-4 22 -11 55 -16 74 -14
54 -12 59 27 66 24 4 38 13 41 25 4 15 15 19 44 19 44 0 43 -2 27 54 -15 54
-28 68 -28 29 0 -23 -5 -32 -22 -37 -43 -11 -1182 15 -1191 28 -4 6 -12 28
-18 50 -14 52 -4 59 80 64 62 4 70 2 75 -16 11 -33 33 -46 59 -35 17 8 30 7
47 -2 21 -11 29 -11 50 0 14 7 57 21 96 30 61 13 137 16 484 15 226 -1 414 0
416 3 2 2 -9 43 -26 90 -16 48 -30 93 -30 100 0 8 31 22 75 35 77 23 86 30 60
52 -8 7 -15 8 -15 3 0 -5 -17 -15 -37 -21 -86 -25 -386 -102 -389 -99 -2 1 4
30 13 64 10 40 21 64 32 67 48 14 421 96 435 96 35 0 12 33 -79 112 -69 59
-91 84 -78 86 64 10 66 12 49 31 -15 17 -22 17 -89 6 -39 -7 -155 -20 -257
-29 -102 -9 -223 -21 -270 -26 -113 -13 -600 -58 -670 -62 l-55 -3 -5 35 c-8
55 0 108 18 115 19 7 330 35 410 36 45 1 70 -5 117 -28 75 -38 131 -56 145
-48 6 3 42 -1 80 -11 l71 -17 45 33 c45 32 45 32 108 21 34 -6 67 -11 72 -11
6 0 18 25 28 55 9 30 20 57 25 59 4 3 56 8 115 12 59 4 109 11 112 15 3 5 18
9 35 9 16 0 29 5 29 12 0 7 -48 61 -106 119 l-107 107 15 39 c14 35 20 39 64
46 71 11 78 15 65 31 -8 10 -24 11 -63 5 -173 -26 -1467 -40 -1485 -16 -6 6
-17 49 -25 94 l-14 81 35 6 c20 3 203 9 406 15 513 14 1037 35 1143 47 28 3
52 10 52 15 0 6 -19 27 -42 48 -40 36 -41 39 -30 71 21 58 19 60 -58 60 -78 0
-64 -9 -231 142 l-87 78 -124 0 c-69 0 -127 -2 -129 -5z m-362 -77 c-3 -7 -5
-2 -5 12 0 14 2 19 5 13 2 -7 2 -19 0 -25z m493 -95 c32 -49 55 -92 52 -98 -3
-5 -7 -4 -10 3 -2 7 -9 9 -14 6 -7 -5 -8 -2 -4 5 5 7 -6 34 -26 64 -37 55 -76
127 -63 115 5 -5 34 -47 65 -95z m-511 -5 c-7 -40 -13 -81 -13 -90 0 -10 -4
-18 -9 -18 -5 0 -7 14 -3 30 3 17 11 59 17 95 7 36 14 63 17 61 2 -3 -2 -38
-9 -78z m388 -118 c175 0 112 -7 -107 -13 -113 -2 -168 -2 -123 2 45 3 85 10
89 14 4 4 14 5 22 2 7 -3 61 -5 119 -5z m198 -20 c3 -5 1 -10 -4 -10 -6 0 -11
5 -11 10 0 6 2 10 4 10 3 0 8 -4 11 -10z m-285 -10 c0 -5 -5 -10 -11 -10 -5 0
-7 5 -4 10 3 6 8 10 11 10 2 0 4 -4 4 -10z m247 4 c-3 -3 -12 -4 -19 -1 -8 3
-5 6 6 6 11 1 17 -2 13 -5z m-140 -10 c-3 -3 -12 -4 -19 -1 -8 3 -5 6 6 6 11
1 17 -2 13 -5z m481 -353 c-1 -4 -37 -99 -78 -210 -70 -189 -76 -201 -100
-201 -33 0 -720 107 -1140 177 -154 26 -165 30 -168 51 -3 19 1 22 34 22 20 0
150 23 288 50 l251 51 365 -46 c201 -25 375 -49 387 -52 14 -3 29 1 38 11 9 9
25 16 36 16 10 0 19 6 19 14 0 31 43 126 57 126 8 0 13 -4 11 -9z m-1391 -542
c49 -9 63 -15 59 -25 -3 -8 -1 -37 5 -64 8 -38 15 -50 29 -50 10 0 21 4 24 9
3 4 35 11 72 14 36 4 102 14 146 24 70 15 90 15 171 4 103 -14 392 -64 477
-83 30 -6 87 -14 126 -17 l72 -6 -25 -85 c-13 -46 -26 -86 -28 -89 -4 -4 -143
22 -795 149 -195 38 -366 70 -379 72 -35 4 -63 49 -69 107 -4 50 -4 51 23 51
16 0 57 -5 92 -11z m865 -384 c29 -14 60 -25 68 -24 11 0 10 2 -3 7 -16 7 57
8 138 3 47 -3 16 -15 -145 -56 -408 -105 -423 -108 -437 -89 -17 23 -17 75 0
99 9 12 57 29 143 50 159 40 169 41 236 10z m316 -342 c100 -3 181 -7 180 -9
-2 -1 -77 -18 -168 -38 -91 -20 -239 -52 -330 -72 -395 -86 -535 -112 -547
-102 -15 12 -17 92 -3 118 11 21 17 23 240 70 195 42 280 46 628 33z"/>
</g>
</svg>
